# xmcd
#
# Track frame offsets:
#	150
#	18803
#	41685
#	67385
#	85400
#	102845
#	121627
#	140718
#	162381
#	185978
#
# Disc length: 2776 seconds
#
# Revision: 0
# Processed by: cddbd v1.5.1PL0 Copyright (c) Steve Scherf et al.
# Submitted via: dBpowerAMP V4.0
#
DISCID=8e0ad60a
DTITLE=Various Artist - (Kaleidoscope)
DYEAR=2002
DGENRE=Blues
TTITLE0=Patrick Stillwell - All through The Knight
TTITLE1=Patrick Stillwell - Such an Easy Thing
TTITLE2=Patrick Stillwell - Without Your Love
TTITLE3=Don Nix              - For The Love of A Woman
TTITLE4=Patrick Stillwell - Living in a Dream
TTITLE5=Patrick Stillwell - Find a New Way
TTITLE6=Patrick Stillwell - Movin' On
TTITLE7=Patrick Stillwell - Too Far Gone
TTITLE8=Patrick Stillwell - Baby It's You
TTITLE9=Patrick Stillwell - Kaleidoscope
EXTD=This is a realy good album to play to your lover\n\nUncle Chronic		
EXTT0=
EXTT1=
EXTT2=
EXTT3=
EXTT4=
EXTT5=
EXTT6=
EXTT7=
EXTT8=
EXTT9=
PLAYORDER=
